<svg xmlns="http://www.w3.org/2000/svg" viewBox="0 0 40 48" fill="none"><path d="M20 44 C8 44 4 34 4 24 C4 10 12 4 20 4 C28 4 36 10 36 24 C36 34 32 44 20 44Z" fill="#4A6944" fill-opacity="0.18"/><path d="M20 44 L20 16" stroke="#4A6944" stroke-width="1.2" opacity="0.5" stroke-linecap="round"/><circle cx="20" cy="8" r="3.5" fill="#4A6944"/><circle cx="13" cy="12" r="2.8" fill="#4A6944" opacity="0.85"/><circle cx="27" cy="12" r="2.8" fill="#4A6944" opacity="0.85"/><path d="M20 44 C8 44 4 34 4 24 C4 10 12 4 20 4 C28 4 36 10 36 24 C36 34 32 44 20 44Z" stroke="#4A6944" stroke-width="1.5" fill="none" opacity="0.7"/></svg>
